<svg width="45" height="44" viewBox="0 0 45 44" fill="none" xmlns="http://www.w3.org/2000/svg">
<path d="M27.7806 11.4984C29.0485 11.0653 30.3753 11.9769 30.4257 13.3158L31.1471 32.4663C31.209 34.1097 29.3713 35.1213 28.0159 34.19L9.15936 21.2344C7.80392 20.3031 8.08918 18.2249 9.64542 17.6933L27.7806 11.4984Z" fill="#4D6AFA"/>
<path d="M20.3166 16.3982L14.3459 24.5192L16.2817 6.63616L20.3166 16.3982Z" fill="#5289E3"/>
<path d="M28.5058 22.0124L23.0466 30.4856L39.0663 22.3002L28.5058 22.0124Z" fill="#5289E3"/>
<path d="M14.1464 26.6786L30.0719 3.49952C31.3998 1.56679 34.043 1.07648 35.9758 2.40439V2.40439C37.9085 3.7323 38.3988 6.37557 37.0709 8.30829L21.1454 31.4874L14.1464 26.6786Z" fill="#5ABAFA"/>
<path d="M17.3536 26.2435C17.8835 26.6076 18.0179 27.3323 17.6538 27.8623L15.7774 30.5934L13.8583 29.2749L15.7348 26.5437C16.0989 26.0138 16.8236 25.8794 17.3536 26.2435V26.2435Z" fill="#0B132B"/>
<path d="M20.5143 28.4148C21.0443 28.7789 21.1787 29.5037 20.8146 30.0337L18.9381 32.7648L17.019 31.4463L18.8955 28.7151C19.2596 28.1852 19.9844 28.0507 20.5143 28.4148V28.4148Z" fill="#0B132B"/>
</svg>
