<svg width="215" height="215" viewBox="0 0 215 215" fill="none" xmlns="http://www.w3.org/2000/svg">
<mask id="mask0_226_15" style="mask-type:alpha" maskUnits="userSpaceOnUse" x="0" y="0" width="215" height="215">
<circle cx="107.5" cy="107.5" r="107.5" fill="#5289E3"/>
</mask>
<g mask="url(#mask0_226_15)">
<circle cx="107.5" cy="107.5" r="107.5" fill="#5289E3"/>
<path d="M29.6299 31.9504C106.734 70.8282 151.442 76.6994 220.325 119.602C219.571 132.77 217.857 139.747 213.441 151.765C126.354 124.197 19.3034 45.7344 19.3034 45.7344C19.3034 45.7344 24.735 36.0813 29.6299 31.9504Z" fill="#5ABAFA"/>
<path d="M70.7464 0C70.7464 0 107.386 15.7033 118.88 22.4333C130.375 29.1633 147.773 40.4974 168.092 45.2405C183.922 62.6621 194.438 65.0312 212.634 71.7866L217.663 87.8638C217.663 87.8638 170.247 71.7866 163.422 71.7866C156.597 71.7866 121.395 46.7361 113.133 47.4838C104.871 48.2316 74.6714 25.4075 54.582 6.3561L70.7464 0Z" fill="#4AD1F0"/>
<path d="M2.74865 71.8885C44.4514 84.5082 67.7747 93.5479 108.808 128.944C141.387 159.303 162.753 168.425 203.684 177.494L183.122 197.694C148.902 190.78 130.947 181.851 101.232 156.585C62.6093 125.278 39.7311 111.913 -2.66254 93.5057L2.74865 71.8885Z" fill="#4AD1F0"/>
<path d="M-7.32196 120.48C-7.32196 120.48 34.7623 135.825 32.8494 146.95C30.9365 158.076 78.3769 183.395 82.2028 181.093C86.0286 178.791 156.424 214.085 156.424 214.085L123.522 220.991C123.522 220.991 85.646 198.357 78.3769 201.042C71.1078 203.727 25.5803 173.804 25.9629 168.434C26.3455 163.063 -2.73095 138.894 -2.73095 138.894L-7.32196 120.48Z" fill="#5ABAFA"/>
</g>
</svg>
