<svg width="52" height="35" viewBox="0 0 52 35" fill="none" xmlns="http://www.w3.org/2000/svg">
<path d="M24.0383 17.0539C25.0247 16.4219 26.2889 16.4219 27.2753 17.0539L39.2522 24.7282C41.7751 26.3448 40.6301 30.2541 37.6336 30.2541H13.6799C10.6835 30.2541 9.53845 26.3448 12.0614 24.7282L24.0383 17.0539Z" fill="#D9D9D9"/>
<ellipse cx="13.9918" cy="12.9345" rx="1.49464" ry="3.04677" fill="#5289E3"/>
<ellipse cx="37.3313" cy="12.9345" rx="1.49464" ry="3.04677" fill="#5289E3"/>
<ellipse cx="25.6616" cy="12.1871" rx="11.6697" ry="12.1871" fill="#D9D9D9"/>
<rect x="16.1763" y="5.5188" width="19.0855" height="14.9464" rx="7.47322" fill="#0B132B"/>
<circle cx="30.433" cy="9.31285" r="0.919781" fill="#D9D9D9"/>
<path d="M34.6415 21.9492C26.8266 23.7444 23.0703 23.4362 16.8158 21.9492L13.9407 23.7029C20.2567 24.7629 22.6255 25.7955 37.3729 23.7029L34.6415 21.9492Z" fill="#5289E3"/>
</svg>
