<svg width="28" height="28" viewBox="0 0 28 28" fill="none" xmlns="http://www.w3.org/2000/svg">
<mask id="mask0_228_55" style="mask-type:alpha" maskUnits="userSpaceOnUse" x="0" y="0" width="28" height="28">
<circle cx="14" cy="14" r="14" fill="#5289E3"/>
</mask>
<g mask="url(#mask0_228_55)">
<circle cx="14" cy="14" r="14" fill="#5465FF"/>
<path d="M-0.758432 -1.01691C10.4371 0.0445316 16.1385 -1.36229 26.5276 0.577041C27.0603 2.21004 27.183 3.13756 27.2169 4.8047C15.3466 5.58829 -1.35773 1.14454 -1.35773 1.14454C-1.35773 1.14454 -1.15639 -0.283831 -0.758432 -1.01691Z" fill="#5ABAFA"/>
<path d="M0.32984 9.79189C0.32984 9.79189 7.61518 9.25142 10.1281 9.4243C12.641 9.59718 16.5891 10.0768 20.1295 9.0241C24.6179 10.8104 26.4394 10.2493 29.926 9.78275L32.6807 12.352C32.6807 12.352 23.7876 13.8575 22.7993 14.5136C21.8109 15.1697 13.5555 13.7972 12.4533 14.7334C11.3511 15.6696 4.10075 14.2389 -1.20989 12.5527L0.32984 9.79189Z" fill="#0B132B"/>
<path d="M-1.99461 18.4478C3.61251 17.5773 6.8602 17.3232 13.6732 19.1642C19.2097 20.8908 22.2323 20.7566 27.5486 19.5129L26.2739 23.0437C21.867 24.1619 19.2557 24.1263 14.3427 22.8362C8.04326 21.3393 4.60389 21.0606 -1.41072 21.2905L-1.99461 18.4478Z" fill="#4AD1F0"/>
</g>
</svg>
