<svg width="74" height="72" viewBox="0 0 74 72" fill="none" xmlns="http://www.w3.org/2000/svg">
<path d="M43.5074 19.6519C46.677 18.5692 49.9941 20.8482 50.1201 24.1952L51.0915 49.9856C51.2463 54.094 46.6523 56.623 43.2637 54.2948L17.8692 36.8472C14.4806 34.5191 15.1938 29.3237 19.0844 27.9946L43.5074 19.6519Z" fill="#0B132B"/>
<path d="M33.4096 26.9659L23.5912 40.3205L26.7744 10.9128L33.4096 26.9659Z" fill="#5289E3"/>
<path d="M46.8761 36.1983L37.8989 50.132L64.2423 36.6715L46.8761 36.1983Z" fill="#5289E3"/>
<path d="M23.2629 43.8715L49.4515 5.75473C51.6351 2.57647 55.9818 1.77019 59.1601 3.95386V3.95386C62.3384 6.13753 63.1447 10.4842 60.961 13.6625L34.7724 51.7792L23.2629 43.8715Z" fill="#4D6AFA"/>
<path d="M28.537 43.1556C29.4084 43.7544 29.6295 44.9462 29.0307 45.8177L25.945 50.3089L22.7891 48.1407L25.8749 43.6494C26.4737 42.7779 27.6655 42.5569 28.537 43.1556V43.1556Z" fill="#0B132B"/>
<path d="M33.7349 46.7268C34.6063 47.3256 34.8274 48.5174 34.2287 49.3889L31.1429 53.8802L27.9871 51.7119L31.0728 47.2206C31.6716 46.3492 32.8634 46.1281 33.7349 46.7268V46.7268Z" fill="#0B132B"/>
</svg>
