<?xml version="1.0" standalone="no"?>
<!DOCTYPE svg PUBLIC "-//W3C//DTD SVG 20010904//EN"
 "http://www.w3.org/TR/2001/REC-SVG-20010904/DTD/svg10.dtd">
<svg version="1.0" xmlns="http://www.w3.org/2000/svg"
 width="260.000000pt" height="260.000000pt" viewBox="0 0 260.000000 260.000000"
 preserveAspectRatio="xMidYMid meet">
<metadata>
Created by potrace 1.14, written by Peter Selinger 2001-2017
</metadata>
<g transform="translate(0.000000,260.000000) scale(0.100000,-0.100000)"
fill="#000000" stroke="none">
<path d="M0 1300 l0 -1300 1300 0 1300 0 0 1300 0 1300 -1300 0 -1300 0 0
-1300z m1100 15 l0 -285 -40 0 -40 0 0 285 0 285 40 0 40 0 0 -285z m491 30
c55 -137 105 -260 110 -273 8 -20 5 -25 -27 -38 -20 -8 -38 -14 -40 -12 -1 2
-16 37 -31 78 l-29 75 -134 0 -134 0 -29 -75 c-15 -41 -29 -76 -31 -77 -5 -5
-66 22 -66 29 0 5 45 117 99 251 55 133 104 255 110 270 10 26 15 28 56 25
l45 -3 101 -250z"/>
<path d="M1392 1393 c-23 -60 -44 -116 -48 -125 -6 -16 3 -18 96 -18 93 0 102
2 96 18 -46 125 -90 232 -96 232 -4 0 -26 -48 -48 -107z"/>
</g>
</svg>
